<?xml version="1.0" encoding="UTF-8"?><svg stroke="currentColor" fill="currentColor" xmlns="http://www.w3.org/2000/svg" viewBox="0 0 458.67 458.67"><path d="m218.67,405.61H36.27c-1.13,0-2.22-.47-3.01-1.26-.81-.81-1.26-1.88-1.26-3.01v-30.95c0-17.71,12.65-33.32,32.15-46.59,34.82-23.77,91.16-38.74,154.52-38.74,8.83,0,16-7.17,16-16s-7.17-16-16-16c-70.87,0-133.61,17.73-172.57,44.29C16.38,317.61,0,343.36,0,370.39v30.95c0,9.6,3.82,18.84,10.62,25.64,6.81,6.78,16.02,10.62,25.64,10.62h182.4c8.83-.02,16-7.19,16-16.02s-7.17-16-16-15.98Z"/><path d="m218.67,234.67c64.77,0,117.33-52.57,117.33-117.33S283.43,0,218.67,0s-117.33,52.57-117.33,117.33,52.57,117.33,117.33,117.33Zm0-202.67c47.1,0,85.33,38.23,85.33,85.33s-38.23,85.33-85.33,85.33-85.33-38.23-85.33-85.33,38.23-85.33,85.33-85.33Z"/><path d="m442.67,330.67h-21.7c-1.96-9.12-5.56-17.62-10.47-25.21l15.36-15.37c6.25-6.23,6.25-16.38,0-22.61-6.23-6.25-16.38-6.25-22.61,0l-15.38,15.36c-7.58-4.91-16.09-8.5-25.2-10.46v-21.72c0-8.83-7.17-16-16-16s-16,7.17-16,16v21.72c-9.11,1.96-17.62,5.55-25.2,10.46l-15.38-15.37c-6.23-6.25-16.38-6.25-22.61,0-6.25,6.23-6.25,16.38,0,22.61l15.37,15.38c-4.91,7.58-8.5,16.08-10.46,25.2h-21.72c-8.83,0-16,7.17-16,16s7.17,16,16,16h21.72c1.96,9.11,5.55,17.62,10.46,25.2l-15.36,15.38c-6.25,6.23-6.25,16.38,0,22.61,6.23,6.25,16.38,6.25,22.61,0l15.37-15.36c7.58,4.91,16.09,8.51,25.21,10.47v21.7c0,8.83,7.17,16,16,16s16-7.17,16-16v-21.7c9.12-1.96,17.62-5.56,25.21-10.47l15.37,15.35c6.23,6.25,16.38,6.25,22.61,0,6.25-6.23,6.25-16.38,0-22.61l-15.35-15.37c4.91-7.59,8.51-16.09,10.47-25.21h21.7c8.83,0,16-7.17,16-16s-7.17-16-16-16Zm-64.9,47.1s-.04.05-.07.07c-7.9,7.87-18.77,12.75-30.77,12.83-.09,0-.18-.01-.27-.01-.09,0-.19.01-.28.01-11.99-.08-22.86-4.96-30.76-12.83-.02-.02-.04-.05-.07-.07-.02-.02-.05-.04-.07-.07-7.93-7.96-12.83-18.93-12.83-31.04,0-24.28,19.73-43.99,44.01-43.99s44.01,19.71,44.01,43.99c0,12.1-4.91,23.08-12.83,31.04-.02.02-.05.04-.07.07Z"/></svg>