<?xml version="1.0" encoding="UTF-8"?><svg stroke="currentColor" fill="currentColor" xmlns="http://www.w3.org/2000/svg" viewBox="0 0 512 448"><path d="m199.81,50.38h0,0m114.02,4.62l10.7,28.4,13.42,35.6h119.05v274H55V119h119.16l13.36-35.74,10.57-28.26h115.75m-57.83,314.18c62.41,0,113.18-50.77,113.18-113.18s-50.77-113.18-113.18-113.18-113.18,50.77-113.18,113.18,50.77,113.18,113.18,113.18M318.7,0h-125.5c-20,0-37.9,12.4-44.9,31.1l-12.3,32.9H48C21.5,64,0,85.5,0,112v288c0,26.5,21.5,48,48,48h416c26.5,0,48-21.5,48-48V112c0-26.5-21.5-48-48-48h-88l-12.4-32.9c-7-18.7-24.9-31.1-44.9-31.1h0Zm-62.7,314.18c-32.06,0-58.18-26.11-58.18-58.18s26.11-58.18,58.18-58.18,58.18,26.11,58.18,58.18-26.11,58.18-58.18,58.18h0Z"/></svg>