<?xml version="1.0" encoding="UTF-8"?><svg stroke="currentColor" fill="currentColor" xmlns="http://www.w3.org/2000/svg" viewBox="0 0 130 113.75"><path  d="m20.31,24.38c-2.24,0-4.06-1.82-4.06-4.06s1.82-4.06,4.06-4.06h89.38c2.24,0,4.06,1.82,4.06,4.06s-1.82,4.06-4.06,4.06H20.31Zm16.25-16.25c-2.24,0-4.06-1.82-4.06-4.06s1.82-4.06,4.06-4.06h56.88c2.24,0,4.06,1.82,4.06,4.06s-1.82,4.06-4.06,4.06h-56.88ZM0,101.56c0,6.73,5.46,12.19,12.19,12.19h105.62c6.73,0,12.19-5.46,12.19-12.19v-56.88c0-6.73-5.46-12.19-12.19-12.19H12.19c-6.73,0-12.19,5.46-12.19,12.19v56.88Zm12.19,4.06c-2.24,0-4.06-1.82-4.06-4.06v-56.88c0-2.24,1.82-4.06,4.06-4.06h105.62c2.24,0,4.06,1.82,4.06,4.06v56.88c0,2.24-1.82,4.06-4.06,4.06H12.19Z"/></svg>