<?xml version="1.0" encoding="UTF-8"?><svg stroke="currentColor" fill="currentColor" xmlns="http://www.w3.org/2000/svg" viewBox="0 0 158.31 138.56"><path d="m141.74,9.99c-17.87-15.03-45.48-12.77-62.58,4.64C62.06-2.78,34.44-5.06,16.57,9.99-6.68,29.57-3.28,61.48,13.3,78.39l54.23,55.25c3.09,3.15,7.24,4.92,11.63,4.92s8.53-1.73,11.63-4.89l54.23-55.25c16.54-16.91,20.01-48.82-3.28-68.43Zm-7.3,57.98l-54.23,55.25c-.74.74-1.36.74-2.1,0l-54.23-55.25c-11.29-11.5-13.57-33.27,2.26-46.6,12.03-10.11,30.58-8.6,42.21,3.25l10.82,11.04,10.82-11.04c11.69-11.9,30.24-13.36,42.21-3.28,15.8,13.33,13.45,35.22,2.26,46.63Z"/></svg>