<?xml version="1.0" encoding="utf-8"?><svg version="1.1" xmlns="http://www.w3.org/2000/svg" xmlns:xlink="http://www.w3.org/1999/xlink" x="0px" y="0px" viewBox="0 0 158.3 138.6" style="enable-background:new 0 0 158.3 138.6;" xml:space="preserve"><style type="text/css">.heart-full{fill:#B20000;}</style><path class="heart-full" d="M141.7,10C123.9-5,96.3-2.8,79.2,14.6C62.1-2.8,34.4-5.1,16.6,10C-6.7,29.6-3.3,61.5,13.3,78.4l54.2,55.2	c3.1,3.1,7.2,4.9,11.6,4.9c4.4,0,8.5-1.7,11.6-4.9L145,78.4C161.6,61.5,165,29.6,141.7,10z M29.7,24c-7.9,6.7-9.9,14.7-10.2,20.2 c-0.4,8.1,2.7,16.3,8.1,21.9c1.7,1.8,1.7,4.6-0.1,6.4c-0.9,0.9-2,1.3-3.1,1.3c-1.2,0-2.3-0.5-3.2-1.4C14,65.1,10,54.4,10.5,43.8 C11,33.5,15.8,24,23.9,17.2c1.9-1.6,4.7-1.4,6.3,0.5C31.8,19.6,31.6,22.5,29.7,24z"/></svg>
