<?xml version="1.0" encoding="UTF-8"?><svg id="Layer_1" xmlns="http://www.w3.org/2000/svg" viewBox="0 0 92.9 118.7"><defs><style>.cls-1{fill:#fff;stroke-width:0px;}</style></defs><path class="cls-1" d="m87,0H5.9C2.7,0,0,2.7,0,3.9v106.9c0,5.3,2.7,7.9,5.9,7.9h82.9c1.2,0,2.2-1,2.2-2.2,0-1.1-.8-2-1.8-2.2v-12.8c2.2-.9,3.7-3.1,3.7-5.5V5.9c0-3.3-2.7-5.9-5.9-5.9Zm-6.9,99.7c0,1.2,1,2.2,2.2,2.2h2.5v3.9H12.6c-1.2,0-2.2,1-2.2,2.2s1,2.2,2.2,2.2h72.2v3.9H5.9c-.8,0-1.5-.7-1.5-1.5v-9.4c0-.8.7-1.5,1.5-1.5h68c1.2,0,2.2-1,2.2-2.2s-1-2.2-2.2-2.2H14.8V13.3c0-1.2-1-2.2-2.2-2.2s-2.2,1-2.2,2.2v84.2h-4.5c-.5,0-1,.1-1.5.2V5.9c0-.8.7-1.5,1.5-1.5h4.5v1.5c0,1.2,1,2.2,2.2,2.2s2.2-1,2.2-2.2v-1.5h72.2c.8,0,1.5.7,1.5,1.5v90.1c0,.8-.7,1.5-1.5,1.5h-4.7c-1.2,0-2.2,1-2.2,2.2h0Z"/><path class="cls-1" d="m64.9,36.8h-.8c-2.3-5.5-7.9-9.2-13.9-9.2s-11.6,3.7-13.9,9.2h-.8c-6.4,0-11.5,5.2-11.5,11.5,0,5.4,3.9,10.2,9.2,11.2v7.2c0,3.3,2.7,5.9,5.9,5.9h22.1c3.3,0,5.9-2.7,5.9-5.9v-7.2c5.3-1,9.2-5.8,9.2-11.2,0-6.3-5.1-11.4-11.4-11.5h0Zm-27.3,28.4h25v1.5c0,.8-.7,1.5-1.5,1.5h-22c-.8,0-1.5-.7-1.5-1.5v-1.5Zm25-7.7v3.3h-3.9l2.7-8.1c.2-.6.2-1.2-.1-1.7s-.7-.9-1.3-1.1c-1.2-.4-2.4.2-2.8,1.4l-3.2,9.5h-1.7v-10.7c0-1.2-1-2.2-2.2-2.2s-2.2,1-2.2,2.2v10.7h-1.7l-3.2-9.5c-.2-.6-.6-1-1.1-1.3s-1.1-.3-1.7-.1c-.6.2-1,.6-1.3,1.1s-.3,1.1-.1,1.7l2.7,8.1h-3.9v-3.3c0-1.2-1-2.2-2.2-2.2-3.9,0-7-3.1-7-7s3.1-7,7-7c.5,0,1.1.1,1.7.2,1.2.3,2.4-.4,2.7-1.6,1.2-4.7,5.5-7.9,10.3-7.9s9,3.2,10.3,7.9c.3,1.2,1.5,1.9,2.7,1.6.7-.2,1.2-.2,1.7-.2,3.8,0,7,3.1,7,7s-3.1,7-7,7c-1.2,0-2.2,1-2.2,2.2h0Z"/><path class="cls-1" d="m64.9,77.4h-29.5c-1.2,0-2.2,1-2.2,2.2s1,2.2,2.2,2.2h29.5c1.2,0,2.2-1,2.2-2.2s-1-2.2-2.2-2.2Z"/><path class="cls-1" d="m59.3,86.6h-18.4c-1.2,0-2.2,1-2.2,2.2s1,2.2,2.2,2.2h18.4c1.2,0,2.2-1,2.2-2.2s-.9-2.2-2.2-2.2Z"/><path class="cls-1" d="m35.4,22.9h29.5c3.2,0,5.9-2.6,5.9-5.9s-2.7-5.9-5.9-5.9h-29.5c-3.2,0-5.9,2.6-5.9,5.9s2.6,5.9,5.9,5.9Zm0-7.4h29.5c.8,0,1.4.7,1.4,1.5s-.7,1.5-1.4,1.5h-29.5c-.8,0-1.5-.7-1.5-1.5s.7-1.5,1.5-1.5Z"/><path class="cls-1" d="m26.6,17c0-1.2-1-2.2-2.2-2.2h-1.8c-1.2,0-2.2,1-2.2,2.2s1,2.2,2.2,2.2h1.8c1.2,0,2.2-1,2.2-2.2Z"/><path class="cls-1" d="m77.8,14.7h-1.8c-1.2,0-2.2,1-2.2,2.2s1,2.2,2.2,2.2h1.8c1.2,0,2.2-1,2.2-2.2s-1-2.2-2.2-2.2Z"/></svg>