<?xml version="1.0" encoding="UTF-8"?><svg stroke="currentColor" fill="currentColor" xmlns="http://www.w3.org/2000/svg" viewBox="0 0 589.43 118.68"><path d="m86.98,0H5.91C2.65,0,0,2.65,0,3.91v106.86c0,5.26,2.65,7.91,5.91,7.91h82.91c1.23,0,2.22-1,2.22-2.22,0-1.1-.8-2.01-1.84-2.19v-12.76c2.22-.9,3.69-3.06,3.69-5.47V5.91c0-3.26-2.65-5.91-5.91-5.91Zm-6.91,99.72c0,1.23,1,2.22,2.22,2.22h2.46v3.92H12.59c-1.23,0-2.22,1-2.22,2.22s1,2.22,2.22,2.22h72.16v3.92H5.91c-.81,0-1.46-.66-1.46-1.46v-9.37c0-.81.66-1.46,1.46-1.46h68.01c1.23,0,2.22-1,2.22-2.22s-1-2.22-2.22-2.22H14.82V13.28c0-1.23-1-2.22-2.22-2.22s-2.22,1-2.22,2.22v84.22h-4.46c-.5,0-.98.06-1.46.18V5.91c0-.81.66-1.46,1.46-1.46h4.46v1.46c0,1.23,1,2.22,2.22,2.22s2.22-1,2.22-2.22v-1.46h72.16c.81,0,1.46.66,1.46,1.46v90.12c0,.81-.66,1.46-1.46,1.46h-4.69c-1.23,0-2.22,1-2.22,2.22Z"/><path d="m64.87,36.85c-.28,0-.55.01-.82.03-2.34-5.55-7.89-9.25-13.92-9.25s-11.58,3.7-13.92,9.25c-.27-.02-.54-.03-.82-.03-6.31,0-11.44,5.13-11.44,11.44,0,5.42,3.93,10.17,9.21,11.22v7.21c0,3.26,2.65,5.91,5.91,5.91h22.11c3.26,0,5.91-2.65,5.91-5.91v-7.21c5.28-1.05,9.21-5.8,9.21-11.22,0-6.31-5.13-11.44-11.44-11.44Zm-27.26,28.4h25.03v1.46c0,.81-.66,1.46-1.46,1.46h-22.11c-.81,0-1.46-.66-1.46-1.46v-1.46Zm25.03-7.75v3.3h-3.9l2.71-8.13c.19-.56.15-1.17-.12-1.7-.27-.53-.72-.93-1.29-1.12-1.16-.39-2.42.24-2.81,1.41l-3.18,9.53h-1.7v-10.67c0-1.23-1-2.22-2.22-2.22s-2.22,1-2.22,2.22v10.67h-1.7l-3.18-9.53c-.19-.56-.58-1.02-1.12-1.29-.53-.27-1.13-.31-1.7-.12-.56.19-1.02.58-1.29,1.12s-.31,1.13-.12,1.7l2.71,8.13h-3.9v-3.3c0-1.23-1-2.22-2.22-2.22-3.85,0-6.99-3.14-6.99-6.99s3.13-6.99,6.99-6.99c.52,0,1.07.08,1.74.25,1.18.3,2.39-.4,2.7-1.57,1.25-4.65,5.48-7.89,10.29-7.89s9.04,3.25,10.29,7.89c.32,1.17,1.53,1.88,2.7,1.57.67-.17,1.22-.25,1.74-.25,3.85,0,6.99,3.14,6.99,6.99s-3.14,6.99-6.99,6.99c-1.23,0-2.22,1-2.22,2.22Z"/><path d="m64.87,77.38h-29.48c-1.23,0-2.22,1-2.22,2.22s1,2.22,2.22,2.22h29.48c1.23,0,2.22-1,2.22-2.22s-1-2.22-2.22-2.22Z"/><path d="m59.34,86.6h-18.42c-1.23,0-2.22,1-2.22,2.22s1,2.22,2.22,2.22h18.42c1.23,0,2.22-1,2.22-2.22s-1-2.22-2.22-2.22Z"/><path d="m35.38,22.87h29.49c3.25,0,5.9-2.65,5.9-5.92s-2.65-5.9-5.9-5.9h-29.49c-3.25,0-5.9,2.65-5.9,5.92s2.65,5.9,5.9,5.9Zm0-7.37h29.49c.8,0,1.45.66,1.45,1.47s-.65,1.45-1.45,1.45h-29.49c-.8,0-1.45-.66-1.45-1.47s.65-1.45,1.45-1.45Z"/><path d="m26.56,16.96c0-1.23-1-2.22-2.22-2.22h-1.84c-1.23,0-2.22,1-2.22,2.22s1,2.22,2.22,2.22h1.84c1.23,0,2.22-1,2.22-2.22Z"/><path d="m77.77,14.74h-1.84c-1.23,0-2.22,1-2.22,2.22s1,2.22,2.22,2.22h1.84c1.23,0,2.22-1,2.22-2.22s-1-2.22-2.22-2.22Z"/><path d="m179.26,84.79v.61c-.49.81-1.19,1.22-2.08,1.22-1.14,0-1.88-.2-2.21-.61-.65-3.34-6.17-8.66-16.55-15.96-10.38-7.29-17.41-10.94-21.08-10.94h-6.99v7.58c0,1.06.29,3.51.88,7.34.5,4.08.92,6.32,1.26,6.72,1.42,2.2,2.14,3.22,2.14,3.06,0,1.87-1.06,2.81-3.18,2.81-2.36,0-4.16-.86-5.38-2.57s-1.83-9.7-1.83-23.96c0-1.14-1.43-2.16-4.28-3.06-2.85-.9-4.28-1.96-4.28-3.18,0-1.79,2.61-3.42,7.82-4.89.57-2.93.94-6.85,1.1-11.74.32-6.11.57-10.07.73-11.86.08-.9.45-3.34,1.1-7.34.57-3.01.81-5.5.73-7.46-.41-.24-1.49-.37-3.24-.37s-2.63-.69-2.63-2.08c0-1.71.81-2.77,2.45-3.18,1.14-.33,2.32-.65,3.55-.98.24-.81.77-1.71,1.59-2.69.73-.24,1.38-.37,1.96-.37.9,0,1.81.45,2.75,1.34.94.9,1.77,1.35,2.51,1.35.41,0,.98-.06,1.71-.18.73-.12,1.3-.18,1.71-.18,9.05,0,16.67,1.88,22.86,5.62,7.58,4.4,11.37,10.84,11.37,19.32,0,7.01-2.08,12.72-6.24,17.12-2.61,2.85-7.66,6.32-15.16,10.39-.49.08-1.06.29-1.71.61,1.63,1.55,5.3,4.2,11,7.95,5.7,3.75,9.78,6.81,12.23,9.17,3.75,3.75,5.54,7.54,5.38,11.37Zm-11.86-57.1c0-6.19-2.8-10.96-8.41-14.3-4.63-2.77-10.24-4.16-16.82-4.16-2.36,0-4.31.16-5.85.49l-1.59,2.45c-1.14,1.88-1.79,4.36-1.95,7.46-.16,4.48-.33,7.13-.49,7.95-.98,4.65-1.63,12.02-1.95,22.13,6.01,2.28,9.75,3.42,11.21,3.42,1.14,0,2.76-.32,4.87-.98,6.01-1.79,10.89-4.77,14.62-8.93,4.22-4.48,6.34-9.66,6.34-15.53Z"/><path d="m217.89,73.29c0,3.59-2.41,6.81-7.21,9.66-4.32,2.61-8.4,3.91-12.23,3.91-10.92,0-16.38-6.93-16.38-20.78,0-6.11,1.1-12.67,3.3-19.68,2.93-9.13,6.68-13.69,11.25-13.69,3.91,0,8.19,1.98,12.84,5.93,4.65,3.95,6.97,7.89,6.97,11.8,0,5.05-2.04,9.46-6.11,13.2-4.08,3.75-8.68,5.62-13.82,5.62-.49,0-1.53-.41-3.12-1.22-1.59-.81-2.67-1.22-3.24-1.22-1.06,0-1.59.33-1.59.98,0,9.37,3.1,14.06,9.29,14.06,3.18,0,6.11-1.06,8.8-3.18,1.63-1.22,3.42-3.14,5.38-5.75,1.55-2.04,2.57-3.06,3.06-3.06,1.87,0,2.81,1.14,2.81,3.42Zm-8.44-22.5c0-2.85-.82-5.52-2.45-8.01-1.63-2.49-3.79-3.73-6.48-3.73-3.26,0-5.91,2.04-7.95,6.11-1.71,3.42-2.57,6.97-2.57,10.64,0,2.36.75,4.34,2.26,5.93,1.51,1.59,3.44,2.38,5.81,2.38,3.34,0,6.11-1.42,8.31-4.28,2.04-2.61,3.06-5.62,3.06-9.05Z"/><path d="m261.78,72.71c0,1.97-1.67,4.62-5.01,7.94-3.34,3.32-6.07,5.27-8.19,5.84-2.85.9-5.22,1.35-7.09,1.35-5.95,0-10.51-2.16-13.69-6.49-2.93-3.84-4.4-8.82-4.4-14.95s1.34-13.31,4.03-21.07c3.34-9.64,7.5-14.46,12.47-14.46,2.36,0,5.5,1.16,9.41,3.48,3.91,2.32,6.11,4.54,6.6,6.66.57,2.53.86,5.01.86,7.46,0,8.97-1.34,13.45-4.03,13.45-.65,0-1.43-.24-2.32-.73-.9-.49-1.34-1.06-1.34-1.71,0-.32.16-.75.49-1.28.32-.53.53-.88.61-1.04.32-1.06.49-3.5.49-7.34,0-9.05-2.04-13.57-6.11-13.57-4.48,0-8.15,4.13-11,12.38-2.12,6.38-3.18,12.42-3.18,18.14,0,4.41.69,8.09,2.08,11.03,1.87,3.84,4.77,5.76,8.68,5.76,2.36,0,5.14-1.23,8.31-3.7,2.85-2.22,4.97-4.56,6.36-7.03.32-.82.81-1.97,1.47-3.45.41-.57.98-.86,1.71-.86.49,0,1.08.55,1.77,1.66.69,1.11,1.04,1.95,1.04,2.52Z"/><path d="m276.7,37.59c0,1.47-.35,3.67-1.04,6.6-.69,2.93-1.04,5.13-1.04,6.6v27.02c0,1.79.41,4.24,1.22,7.34-.33.65-.78.98-1.34.98-3.99,0-5.99-1.91-5.99-5.75v-44.87c1.06-.57,2.08-.86,3.06-.86s2,.29,3.06.86c1.38.57,2.08,1.26,2.08,2.08Zm2.32-18.34c0,2.77-1.3,4.16-3.91,4.16-1.55,0-2.98-.57-4.28-1.71-1.3-1.14-1.96-2.45-1.96-3.91,0-2.77,1.39-4.16,4.16-4.16,1.63,0,3.04.53,4.22,1.59,1.18,1.06,1.77,2.4,1.77,4.03Z"/><path d="m321.81,55.44c0,8.07-1.18,14.84-3.55,20.3-3.18,7.58-8.19,11.37-15.04,11.37-4.48,0-8.4-2.08-11.74-6.24-.57.24-.86,2.77-.86,7.58,0,10.59.53,18.09,1.59,22.5.08.41.47,1.38,1.16,2.93.69,1.55,1.04,2.49,1.04,2.81,0,1.3-.82,1.96-2.45,1.96-1.96,0-3.32-.29-4.1-.86-.78-.57-1.45-2.45-2.02-5.62-.49-2.69-.73-4.81-.73-6.36v-31.05c0-2.85.15-6.68.44-11.49.29-5.62.47-9.45.54-11.49.08-2.2.08-5.05,0-8.56v-8.68c0-5.62,1.47-8.44,4.4-8.44,1.47,0,2.2.53,2.2,1.59,0,2.04-.16,5.01-.49,8.93-.33,3.91-.49,6.85-.49,8.8h.49c1.87-2.53,3.75-5.09,5.62-7.7,2.2-2.85,4.93-4.28,8.19-4.28,5.46,0,9.58,2.45,12.35,7.34,2.28,3.91,3.42,8.8,3.42,14.67Zm-6.11.49c0-4.32-.45-8.03-1.34-11.13-1.39-4.56-3.63-6.85-6.72-6.85-2.28,0-5.05,2-8.31,5.99-2.85,3.51-4.85,7.09-5.99,10.76-.9,2.77-1.63,6.85-2.2,12.23-.33,3.91-.49,5.79-.49,5.62,0,.24.36.65,1.09,1.22.48.33.97.69,1.46,1.1,1.3,1.88,2.62,3.77,3.95,5.69,1.34,1.92,3.35,2.87,6.02,2.87,4.46,0,7.83-3.67,10.1-11,1.62-5.21,2.43-10.72,2.43-16.51Z"/><path d="m363.75,73.29c0,3.59-2.4,6.81-7.21,9.66-4.32,2.61-8.4,3.91-12.23,3.91-10.92,0-16.38-6.93-16.38-20.78,0-6.11,1.1-12.67,3.3-19.68,2.93-9.13,6.68-13.69,11.25-13.69,3.91,0,8.19,1.98,12.84,5.93,4.65,3.95,6.97,7.89,6.97,11.8,0,5.05-2.04,9.46-6.11,13.2-4.08,3.75-8.68,5.62-13.82,5.62-.49,0-1.53-.41-3.12-1.22-1.59-.81-2.67-1.22-3.24-1.22-1.06,0-1.59.33-1.59.98,0,9.37,3.1,14.06,9.29,14.06,3.18,0,6.11-1.06,8.8-3.18,1.63-1.22,3.42-3.14,5.38-5.75,1.55-2.04,2.57-3.06,3.06-3.06,1.87,0,2.81,1.14,2.81,3.42Zm-8.44-22.5c0-2.85-.82-5.52-2.45-8.01-1.63-2.49-3.79-3.73-6.48-3.73-3.26,0-5.91,2.04-7.95,6.11-1.71,3.42-2.57,6.97-2.57,10.64,0,2.36.75,4.34,2.26,5.93,1.51,1.59,3.44,2.38,5.81,2.38,3.34,0,6.11-1.42,8.31-4.28,2.04-2.61,3.06-5.62,3.06-9.05Z"/><path d="m450.18,63.63c0,2.53-.57,4.77-1.72,6.72-5.48,9.78-14.88,14.67-28.2,14.67-4.17,0-9.44-.81-15.81-2.45,0,.16-.04.33-.12.49,0,.24.16,1.02.49,2.32-.32.98-.93,1.59-1.81,1.83l-.97-.49c-1.53.16-2.42-.65-2.66-2.43-.24-2.59-.46-4.01-.66-4.25-.2-.24-1.03-.69-2.48-1.34-1.13-.49-1.69-1.21-1.69-2.19,0-1.21.59-1.88,1.77-2,1.18-.12,1.81-.39,1.9-.79,0,.08,0-.57,0-1.94s.06-3.56.18-6.56c.12-3,.18-5.26.18-6.8v-4.25c-1.79-.57-2.69-1.34-2.69-2.31,0-1.21.77-2.23,2.32-3.04V7.78c0-.66.47-1.48,1.41-2.46.94-.98,1.73-1.47,2.38-1.47,1.3,0,2.04.12,2.2.37.49.49.94,1.02,1.35,1.59-1.3,7.5-1.96,12.88-1.96,16.14l.12.73c5.54-14.26,13.82-21.4,24.82-21.4,6.36,0,11.21,2.45,14.55,7.34,3.01,4.32,4.52,9.74,4.52,16.26,0,4.89-1.14,9.7-3.42,14.43-2.61,5.54-5.95,8.97-10.03,10.27,10.68,1.3,16.02,5.99,16.02,14.06Zm-6.11-.73c0-4.48-4.33-7.38-13-8.68-3.52-.57-9.65-.86-18.4-.86-3.43,0-6.17.24-8.22.73-.08,2.69-.12,8.27-.12,16.75,0,2.12.08,4.03.24,5.75,3.92,2.28,9.12,3.42,15.57,3.42,5.23,0,10.34-1.55,15.33-4.65,5.72-3.42,8.59-7.58,8.59-12.47Zm-2.57-38.51c0-12.23-4.46-18.34-13.37-18.34-6.05,0-11.57,3.95-16.56,11.86-4.5,7.09-6.75,13.82-6.75,20.17v10.76c-.33,0,2.7,0,9.08,0,9.4,0,16.23-1.67,20.49-5.01,4.74-3.83,7.11-10.31,7.11-19.44Z"/><path d="m495.54,61.31c0,7.01-1.55,13.12-4.65,18.34-3.67,6.28-8.76,9.41-15.28,9.41s-11.54-2.57-14.79-7.7c-2.69-4.24-4.03-9.86-4.03-16.87s1.55-13.73,4.65-20.42c3.91-8.23,8.88-12.35,14.92-12.35,1.55,0,3.75.9,6.6,2.69,8.39,5.22,12.59,14.18,12.59,26.9Zm-5.87-.12c0-5.22-.69-9.9-2.08-14.06-2.04-5.79-5.18-8.68-9.41-8.68-4.89,0-8.72,3.22-11.49,9.66-2.12,4.97-3.18,10.31-3.18,16.02,0,5.13.73,9.46,2.2,12.96,2.12,4.81,5.42,7.21,9.9,7.21,4.89,0,8.6-2.77,11.12-8.31,1.96-4.32,2.93-9.25,2.93-14.79Z"/><path d="m540.41,61.31c0,7.01-1.55,13.12-4.65,18.34-3.67,6.28-8.76,9.41-15.28,9.41s-11.54-2.57-14.79-7.7c-2.69-4.24-4.03-9.86-4.03-16.87s1.55-13.73,4.65-20.42c3.91-8.23,8.88-12.35,14.92-12.35,1.55,0,3.75.9,6.6,2.69,8.39,5.22,12.59,14.18,12.59,26.9Zm-5.87-.12c0-5.22-.69-9.9-2.08-14.06-2.04-5.79-5.18-8.68-9.41-8.68-4.89,0-8.72,3.22-11.49,9.66-2.12,4.97-3.18,10.31-3.18,16.02,0,5.13.73,9.46,2.2,12.96,2.12,4.81,5.42,7.21,9.9,7.21,4.89,0,8.6-2.77,11.12-8.31,1.96-4.32,2.93-9.25,2.93-14.79Z"/><path d="m589.43,90.17c-2.04,1.63-3.68,2.44-4.91,2.44-1.8,0-4.91-2.57-9.32-7.7-5.56-6.6-8.51-10.07-8.83-10.39-.98-.81-2.7-2.73-5.15-5.75-2.13-2.53-4.01-4.28-5.64-5.26l-2.21,2.93v12.1c0,.73.28,1.77.86,3.12.57,1.35.86,2.38.86,3.12,0,.49-.35.96-1.04,1.41-.69.45-1.33.67-1.9.67-3.26,0-4.89-1.75-4.89-5.26v-17.12c0-1.06.12-2.63.37-4.71.24-2.08.37-3.65.37-4.71V21.33c0-4.81-.19-8.6-.56-11.37,0-.41-.19-1.3-.57-2.69-.23-1.14-.34-2.08-.34-2.81,0-.81.63-1.63,1.89-2.44,1.26-.81,2.38-1.22,3.36-1.22.73,0,1.53.23,2.38.67.86.45,1.28,1,1.28,1.65,0,.08-.22,1.06-.65,2.93-.61,2.2-.91,6.48-.91,12.84l-.52,35.46.61.61c2.62-1.63,6.22-4.65,10.8-9.05,2.86-2.93,5.73-5.87,8.59-8.8,4.66-4.73,7.4-7.09,8.22-7.09,1.23,0,2.21.55,2.95,1.65.74,1.1,1.06,2.26.98,3.48l-.12.61c-3.11,2.04-7.7,5.71-13.76,11-6.96,6.11-10.44,10.15-10.44,12.1,0,.73,1.23,2.57,3.68,5.5,3.85,4.48,7.65,8.97,11.42,13.45,5.16,5.62,9.54,9.29,13.14,11v1.35Z"/></svg>