<?xml version="1.0" encoding="UTF-8"?><svg stroke="currentColor" fill="currentColor" xmlns="http://www.w3.org/2000/svg" viewBox="0 0 487.45 487.4"><path d="m264.95,487.4c-22.79,0-45.58-8.67-62.93-26.02L26.02,285.38C9.24,268.6,0,246.23,0,222.4V72.9c0-19.54,7.62-37.89,21.46-51.68C35.2,7.53,53.43,0,72.81,0c.1,0,.19,0,.28,0h149.31C246.23,0,268.6,9.24,285.38,26.02l176,176c16.81,16.81,26.07,39.16,26.07,62.93s-9.26,46.11-26.07,62.93l-133.5,133.5c-17.35,17.35-40.14,26.02-62.93,26.02ZM72.91,50c-6.15,0-11.86,2.36-16.16,6.65-4.35,4.33-6.75,10.11-6.75,16.25v149.5c0,10.48,4.04,20.29,11.38,27.62l176,176c7.37,7.37,17.16,11.43,27.57,11.43s20.2-4.06,27.57-11.43l133.5-133.5c7.37-7.37,11.43-17.16,11.43-27.57s-4.06-20.2-11.43-27.57L250.02,61.38c-7.34-7.34-17.15-11.38-27.62-11.38H72.91Zm71.59,165.9c-38.87,0-70.5-31.63-70.5-70.5s31.63-70.5,70.5-70.5,70.5,31.63,70.5,70.5-31.63,70.5-70.5,70.5Zm0-91c-11.3,0-20.5,9.2-20.5,20.5s9.2,20.5,20.5,20.5,20.5-9.2,20.5-20.5-9.2-20.5-20.5-20.5Z"/></svg>