<?xml version="1.0" encoding="UTF-8"?><svg stroke="currentColor" fill="currentColor" xmlns="http://www.w3.org/2000/svg" viewBox="0 0 155.2 140.95"><path  d="m150.45,4.75c-7.92-3.17-15.84-4.75-25.34-4.75-17.42,0-33.26,6.33-47.51,17.42C63.35,6.33,47.51,0,30.09,0h0C20.59,0,12.67,1.58,4.75,4.75,1.58,4.75,0,7.92,0,9.5v112.44c0,1.58,1.58,3.17,3.17,4.75s3.17,1.58,4.75,0c7.92,0,14.25-1.58,22.17-1.58,15.84,0,31.67,6.33,44.34,15.84h6.33c12.67-11.09,28.51-15.84,44.34-15.84h0c7.92,0,14.25,1.58,22.17,3.17h4.75c1.58,0,3.17-3.17,3.17-4.75V9.5c0-1.58-1.58-4.75-4.75-4.75ZM12.67,115.61V14.25c4.75-1.58,11.09-1.58,17.42-1.58,15.84,0,30.09,4.75,41.18,15.84v98.19c-12.67-9.5-26.92-14.25-41.18-14.25-4.75,0-12.67,1.58-17.42,3.17Zm129.86,0c-4.75-1.58-11.09-3.17-17.42-3.17h0c-14.25,0-28.51,4.75-41.18,12.67V26.92c11.09-9.5,26.92-15.84,41.18-15.84h0c6.33,0,12.67,1.58,17.42,3.17v101.36Z"/></svg>