<?xml version="1.0" encoding="UTF-8"?><svg stroke="currentColor" fill="currentColor" xmlns="http://www.w3.org/2000/svg" viewBox="0 0 149.19 149.19"><path  d="m74.59,0C33.47,0,0,33.47,0,74.59s33.47,74.59,74.59,74.59,74.59-33.46,74.59-74.59S115.73,0,74.59,0Zm0,137.25c-34.55,0-62.66-28.11-62.66-62.66S40.05,11.93,74.59,11.93s62.66,28.11,62.66,62.66-28.11,62.66-62.66,62.66Z"/><path  d="m92.5,102.94h-10.44v-38.79c0-3.29-2.67-5.97-5.97-5.97h-11.93c-3.29,0-5.97,2.67-5.97,5.97s2.67,5.97,5.97,5.97h5.97v32.82h-10.44c-3.29,0-5.97,2.67-5.97,5.97s2.67,5.97,5.97,5.97h32.82c3.29,0,5.97-2.67,5.97-5.97s-2.67-5.97-5.97-5.97Z"/><circle  cx="74.59" cy="40.28" r="9.7"/></svg>