<?xml version="1.0" encoding="UTF-8"?><svg stroke="currentColor" fill="currentColor" xmlns="http://www.w3.org/2000/svg" viewBox="0 0 511 511"><path d="m195.62,322.37c5.51,0,9.98-4.47,9.98-9.98s-4.47-9.98-9.98-9.98-9.98,4.47-9.98,9.98,4.47,9.98,9.98,9.98Z"/><path d="m489.27,346.48l-14.67-64.11c-.02-.07-.03-.14-.05-.2-3.35-13.35-15.29-22.67-29.05-22.67h-114.67c26.82-25.04,44.42-69.6,44.42-109.79,0-45.15-23.15-76.54-61.9-86.46,20.27-21.78,22.25-51.39,22.32-52.68.16-2.76-.83-5.47-2.74-7.47-1.91-2-4.57-3.15-7.34-3.09-1.39.02-34.25.63-56.35,22.74-5.06,5.05-9.06,10.67-12.22,16.34-8.1-14.74-21.56-26.33-38.31-31.91-5.23-1.74-10.88,1.08-12.62,6.32-1.74,5.23,1.08,10.88,6.31,12.62,16.66,5.55,28.72,19.5,32.12,36.21-6.19-1.62-12.54-2.44-18.98-2.44-53.08,0-89.82,32.42-89.82,89.82,0,40.18,17.6,84.74,44.42,109.79h-114.67c-13.76,0-25.71,9.33-29.05,22.67l-.05.2-14.67,64.12c-12.52,3.58-21.72,15.12-21.72,28.78v19.96c0,13.66,9.2,25.2,21.72,28.78l14.67,64.11.05.2c3.35,13.35,15.29,22.68,29.05,22.68h380.02c13.76,0,25.71-9.33,29.05-22.68.02-.07.04-.13.05-.2l14.67-64.11c12.53-3.58,21.72-15.12,21.72-28.78v-19.96c0-13.66-9.2-25.2-21.72-28.78ZM283.38,36.86c9.08-9.08,21.2-13.29,30.16-15.24-2.3,8.62-6.91,20.21-16.05,29.35-3.36,3.36-7.38,6.35-11.97,8.92-.02,0-.05,0-.08,0-5.6,0-11.12.64-16.53,1.86,2.63-8.04,7.07-17.49,14.47-24.89Zm-127.68,112.85c0-63.05,48.86-69.86,69.86-69.86,8.48,0,16.76,1.96,24.61,5.78,2.94,1.79,6.69,1.96,9.77.43.02-.01.04-.02.07-.03,9.21-4.66,17.86-6.34,27.76-6.15,20.32.44,67.54,8.14,67.54,69.83,0,49.42-32.24,109.79-69.86,109.79h-59.88c-37.63,0-69.86-60.37-69.86-109.79Zm-99.88,137.23c1.15-4.41,5.11-7.48,9.67-7.48h380.02c4.56,0,8.52,3.07,9.67,7.48l13.36,58.39h-146.5c-4.3,0-8.11,2.75-9.47,6.82l-4.38,13.14h-105.38l-4.38-13.14c-1.36-4.07-5.17-6.82-9.47-6.82H42.46l13.36-58.39Zm399.36,196.62c-1.15,4.41-5.11,7.48-9.67,7.48H65.49c-4.56,0-8.52-3.07-9.67-7.48l-13.36-58.39h426.07l-13.36,58.39Zm35.86-88.33c0,5.5-4.48,9.98-9.98,9.98H29.94c-5.5,0-9.98-4.48-9.98-9.98v-19.96c0-5.5,4.48-9.98,9.98-9.98h151.82l4.38,13.14c1.36,4.07,5.17,6.82,9.47,6.82h119.76c4.3,0,8.11-2.75,9.47-6.82l4.38-13.14h151.77s.03,0,.05,0c0,0,.02,0,.02,0,5.5,0,9.96,4.48,9.96,9.98v19.96Z"/><path d="m235.54,322.37h79.84c5.51,0,9.98-4.47,9.98-9.98s-4.47-9.98-9.98-9.98h-79.84c-5.51,0-9.98,4.47-9.98,9.98s4.47,9.98,9.98,9.98Z"/><path d="m315.38,149.71c0,5.51,4.47,9.98,9.98,9.98s9.98-4.47,9.98-9.98c0-8.99-.89-22.18-8.59-32.79-8.24-11.35-22.14-17.11-41.31-17.11-5.51,0-9.98,4.47-9.98,9.98s4.47,9.98,9.98,9.98c25.04,0,29.94,10.98,29.94,29.94Z"/></svg>