<?xml version="1.0" encoding="UTF-8"?><svg id="Layer_1" xmlns="http://www.w3.org/2000/svg" viewBox="0 0 494.59 493.65"><defs><style>.cls-1{fill:#fff;stroke-width:0px;}</style></defs><path class="cls-1" d="m461.82,380.3c1.33-5.53.92-13.52-6.04-23.55-7.37-10.55-21.09-21.5-34.82-25.8-.2-7.27-2.87-12.8-5.63-16.59-14.54-20.07-50.89-21.61-61.75-21.61-23.14,0-49.05,2.87-68.3,23.55-31.03-.2-52.63,15.36-60.83,22.32-4.61,3.99-8.29,10.34-10.96,18.12-25.6,13.82-47.92,46.49-48.84,72.6-.51,13.62,2.36,23.45,8.7,30,7.07,7.27,16.08,8.09,22.22,8.09,13.41,0,29.29-4.2,37.68-6.76,5.73,4.2,12.9,6.76,22.22,6.76,10.75,0,24.37-4.71,33.48-8.7,7.99,5.73,17.31,8.7,27.34,8.7h5.53c9.42,0,23.14-.51,32.97-6.66,9.73,6.35,19.66,6.66,35.84,6.66,10.34,0,17.1-3.48,22.02-8.5,1.95.41,4.2,1.02,6.25,1.43,12.6,3.07,28.57,6.96,42.5,6.96s24.78-3.58,29.8-14.85c10.44-23.24-10.55-56.73-29.39-72.19h0Zm-273.41,64.92c-1.02-1.02-3.28-4.61-2.97-15.05.51-13.93,10.75-31.95,23.76-44.54-.31,11.98,1.02,25.09,4.2,37.99,1.54,6.55,3.58,13.41,6.55,19.66-7.27,1.84-16.49,3.79-24.17,3.79-3.89,0-6.14-.61-7.37-1.84h0Zm55.09-2.87q-.1-.1-.2-.2c-3.58-3.89-6.96-10.96-9.93-23.35-5.22-21.61-4.2-40.04-1.33-51.81.1-.31.1-.51.2-.82,1.64-6.04,3.69-10.14,5.73-11.88,4.92-4.3,16.38-12.6,32.77-15.97-10.24,21.91-10.44,44.24-10.65,55.19v1.95c-.1,9.22,3.38,30.31,14.03,47.31-6.76,2.46-13.82,4.3-18.64,4.3-3.99,0-8.09-.61-11.98-4.71h0Zm75.78,4.71h-2.66c-7.58,0-13.93-2.66-19.46-8.29-12.6-12.8-16.49-36.35-16.38-43.01v-2.05c.1-12.8.41-39.53,17.2-60.52,11.47-14.34,27.14-19.87,55.71-19.87,20.58,0,39.53,5.53,45.06,13.11,1.33,1.74,2.56,4.51.92,9.73-2.36,7.27-9.52,16.28-16.49,24.99-5.22,6.66-10.75,13.52-15.05,20.58-13.21,21.81-18.94,36.97-21.91,57.96-.92,6.96-14.44,7.37-26.93,7.37h0Zm47.1-3.17c.1-.41.2-.82.2-1.23,2.56-18.12,7.37-30.72,19.15-50.07,3.69-6.04,8.7-12.39,13.52-18.53,6.04-7.58,12.08-15.26,16.28-23.14,8.09,2.76,18.02,10.04,23.35,17.61,2.97,4.3,3.07,6.66,2.97,7.07-2.46,6.45-6.66,11.57-12.08,18.02-4.92,5.84-10.44,12.49-16.08,21.81-3.58,5.94-6.14,11.67-8.4,16.59-2.05,4.61-3.58,7.88-5.12,10.14-.1.1-.1.2-.2.31-2.46,3.69-4.71,4.61-9.11,4.61-14.34,0-19.76-.31-24.47-3.17h0Zm106.09.51c-.41.82-3.99,3.07-15.16,2.25-10.96-.72-23.86-3.89-33.38-6.14,0-.1.1-.1.1-.2,2.05-4.61,4.2-9.42,7.17-14.34,4.81-7.99,9.63-13.72,14.34-19.25,2.15-2.66,4.3-5.22,6.35-7.88,13.11,12.39,25.19,35.12,20.58,45.57h0Z"/><path class="cls-1" d="m180.63,143.96c-3.79,4.2-3.48,10.75.72,14.54,1.95,1.84,4.4,2.66,6.96,2.66,2.76,0,5.53-1.13,7.58-3.38,30.11-33.08,12.7-55.19,1.23-69.73-11.78-15.05-18.33-23.24,2.76-44.34,3.99-3.99,3.99-10.55,0-14.54s-10.55-3.99-14.54,0c-34,34-16.18,56.63-4.4,71.68,11.67,14.75,18.12,22.94-.31,43.11h0Z"/><path class="cls-1" d="m249.65,144.47c-3.48,4.51-2.76,10.96,1.74,14.44,1.84,1.54,4.1,2.25,6.35,2.25,3.07,0,6.04-1.33,8.09-3.89,16.79-21.3,6.76-35.94.82-44.75-5.63-8.29-7.48-11.06,1.02-20.89,3.69-4.3,3.28-10.75-1.02-14.54-4.3-3.69-10.75-3.28-14.54,1.02-18.94,21.91-8.7,36.97-2.56,45.98,5.53,7.99,7.58,10.96.1,20.38h0Z"/><path class="cls-1" d="m120.52,144.47c-3.48,4.51-2.76,10.96,1.74,14.44,1.84,1.54,4.1,2.25,6.35,2.25,3.07,0,6.04-1.33,8.09-3.89,16.79-21.3,6.76-35.94.82-44.75-5.63-8.29-7.48-11.06,1.02-20.89,3.69-4.3,3.28-10.75-1.02-14.54-4.3-3.69-10.75-3.28-14.54,1.02-18.94,21.91-8.7,36.97-2.56,45.98,5.53,7.99,7.58,10.96.1,20.38Z"/><path class="cls-1" d="m149.4,385.31h-15.46c0-.51,0-1.13-.1-1.64-1.43-9.11-6.66-16.59-12.6-25.19-14.03-20.28-37.07-53.76-38.6-148.07h226.2c-.41,22.12-1.95,42.29-4.71,60.11-.92,5.63,2.97,10.85,8.6,11.78,5.63.82,10.85-2.97,11.78-8.6,3.38-21.61,5.02-46.39,5.02-73.63,0-5.63-4.61-10.24-10.24-10.24H72.29c-5.63,0-10.24,4.61-10.24,10.24,0,14.64.51,28.06,1.33,40.35-9.83-4.81-19.66-5.73-25.29-5.73-10.85,0-20.28,4.1-27.24,11.78-7.58,8.29-11.57,20.48-10.44,31.74,2.87,29.49,26.42,39.32,49.15,48.84,14.13,5.94,28.77,12.08,42.09,22.94,4.51,8.09,8.91,14.54,12.8,20.07,4.3,6.35,7.58,11.06,8.81,15.16H41.37c-5.63,0-10.24,4.61-10.24,10.24s4.61,10.24,10.24,10.24h108.03c5.63,0,10.24-4.61,10.24-10.24.1-5.53-4.51-10.14-10.24-10.14h0Zm-91.96-77.11c-22.94-9.63-35.02-15.36-36.66-31.95-.41-4.51,1.02-11.26,5.22-15.87,3.07-3.38,7.07-5.02,12.08-5.02,7.88,0,21.91,2.25,28.77,16.9,2.66,17.72,6.25,32.36,10.34,44.65-6.86-3.28-13.52-6.04-19.76-8.7Z"/></svg>