<?xml version="1.0" encoding="UTF-8"?><svg id="Layer_1" xmlns="http://www.w3.org/2000/svg" viewBox="0 0 507.75 504.46"><defs><style>.cls-1{fill:#fff;stroke-width:0px;}</style></defs><path class="cls-1" d="m463.34,248.12c6.83-.7,11.8-6.79,11.11-13.61-10.63-105.04-91.83-186.18-193.87-199.04l2.71-10.55c1.55-6.1.2-12.66-3.62-17.57-3.64-4.69-9.05-7.36-14.87-7.36h-25.03c-5.98,0-11.51,2.81-15.15,7.72-3.81,5.14-4.96,11.89-3.1,18.06l2.9,9.62C121.69,48.08,40.21,129.76,29.99,235.51c-.66,6.83,4.34,12.9,11.17,13.58.41.03.81.05,1.22.05,6.33,0,11.73-4.8,12.36-11.23,9.89-102.37,94.82-179.57,197.54-179.57s187.13,76.81,197.46,178.67c.7,6.84,6.81,11.79,13.62,11.12h0ZM247.19,24.84h10.45l-2.24,8.79c-1.05-.01-2.08-.15-3.13-.15-.83,0-1.62.1-2.44.11l-2.63-8.75Z"/><path class="cls-1" d="m495.32,262.53H12.42c-6.85,0-12.42,5.57-12.42,12.43s5.57,12.43,12.42,12.43h8.62c5.51,20.53,24.11,35.77,46.38,35.77h47.33c15.47,18.84,61.51,74.63,61.51,74.63.32.37.65.73,1.01,1.07l73.01,69.65,7.35,6.39-9.96,6.91c-5.63,3.92-7.03,11.68-3.11,17.3,2.42,3.48,6.29,5.35,10.21,5.35,2.46,0,4.93-.73,7.09-2.23l96.02-67.17,34.21,32.13c2.4,2.26,5.46,3.38,8.52,3.38,3.3,0,6.61-1.31,9.05-3.91,4.7-5.01,4.45-12.88-.54-17.57l-42.67-40.09c-3.9-3.65-9.49-4.17-14.03-1.89-1.82-5.94-2.05-12.24-.44-18.36,2.59-9.83,7.55-19.04,14.32-26.59l28.37-31.59c1.86-2.06,2.93-4.69,3.13-7.4h39.33c22.25,0,40.84-15.24,46.36-35.77h11.83c6.87,0,12.43-5.57,12.43-12.43s-5.56-12.43-12.43-12.43h0Zm-147.5,83.02c-9.4,10.47-16.28,23.2-19.87,36.86-3.61,13.76-2.14,28.08,4.11,40.73l-53.38,37.13-11.66-10.12-72.05-68.77c-3.8-4.59-29.79-36.1-48.01-58.23h18.57s42.04,35.89,42.36,36.12c14.04,9.9,46.25,18.71,61.78,18.71,21.99,0,43.23-9.27,58.29-25.44,5.04-5.41,9.69-10.19,13.3-13.88,6.09-6.22,12.77-10.75,19.83-13.48,2.69-1.02,4.9-1.6,6.68-1.87l-19.94,22.24Zm-38.03-9.96c-10.39,11.15-25.01,17.54-40.13,17.54-11.84,0-37.81-7.71-47.05-13.89l-18.83-16.09h117.87c-3.41,3.52-7.42,7.67-11.86,12.43h0Zm127.35-37.28H67.42c-8.3,0-15.62-4.37-19.75-10.92h409.2c-4.14,6.55-11.43,10.92-19.73,10.92Z"/><path class="cls-1" d="m399.7,204.67c6.55-2.03,10.21-9,8.17-15.55-23.17-74.4-88.82-95.85-91.61-96.74-6.51-2.02-13.48,1.56-15.56,8.09-2.08,6.52,1.52,13.51,8.05,15.61,2.28.74,56.19,18.78,75.38,80.42,1.67,5.33,6.57,8.74,11.87,8.74,1.23,0,2.48-.19,3.7-.57h0Z"/></svg>