<?xml version="1.0" encoding="UTF-8"?><svg id="Layer_1" xmlns="http://www.w3.org/2000/svg" viewBox="0 0 569.38 472.63"><defs><style>.cls-1{fill:#fff;stroke-width:0px;}</style></defs><path class="cls-1" d="m567.38,335.09c-2.08-2.99-5.49-4.77-9.13-4.77h-14.83c.13-.35.27-.67.41-.97,1-2.12,3.04-4.78,7.12-10.09,1.73-2.25,3.78-4.93,6.22-8.18,7.31-9.71,3.9-19.69,1.63-26.31-3.04-8.85-4.5-13.25-4.5-16.49s1.46-7.64,4.51-16.51c2.26-6.61,5.67-16.59-1.63-26.29-2.48-3.3-4.55-6-6.29-8.27-4.05-5.29-6.09-7.94-7.08-10.06-.92-1.96-1.52-4.66-2.89-11.1-.55-2.6-1.21-5.69-2.05-9.42-2.27-10.22-9.17-17.25-19.44-19.82-2.86-.71-5.68-1.24-8.4-1.76-4.73-.9-9.2-1.76-12.9-3.32-3.74-1.59-7.47-4.2-11.41-6.97-2.28-1.6-4.64-3.26-7.14-4.82-9.2-5.77-24.74-5.77-33.92-.01-2.52,1.57-4.88,3.23-7.16,4.83-3.94,2.77-7.67,5.38-11.36,6.95-1.72.72-3.59,1.29-5.51,1.77-3.38-3.76-7.91-6.42-13.41-7.76-2.83-.7-5.62-1.24-8.32-1.76-4.76-.92-9.25-1.78-12.99-3.36-3.74-1.59-7.46-4.2-11.4-6.97-2.28-1.6-4.64-3.26-7.14-4.82-9.2-5.77-24.75-5.77-33.92-.01-2.52,1.57-4.88,3.23-7.17,4.83-3.94,2.77-7.66,5.38-11.38,6.96-3.76,1.59-8.25,2.45-13.01,3.37-2.69.52-5.48,1.06-8.28,1.75-10.25,2.5-17.15,9.5-19.44,19.66-6.75-1.66-13.75-.5-20.03,3.48-3.26,2.06-5.92,3.78-8.16,5.23-5.51,3.57-7.83,5.05-9.87,5.79-2.19.79-5.51,1.23-12.11,2.1-2.75.36-6.01.8-9.9,1.35-.45-2.55-.91-5.17-1.53-7.85-2.44-10.57-13.43-21.56-24.02-24-2.85-.65-5.66-1.14-8.37-1.62-4.77-.83-9.27-1.62-13.05-3.15-3.81-1.54-7.62-4.13-11.65-6.87-2.24-1.52-4.56-3.09-7.07-4.62-9-5.4-18.83-5.31-27.71.27-3.29,2.08-5.96,3.82-8.21,5.28-5.5,3.57-7.81,5.04-9.84,5.78-2.19.79-5.51,1.23-12.13,2.1-2.83.37-6.19.82-10.22,1.39-12.06,1.66-16.72,11.15-19.83,17.46-4.09,8.4-6.16,12.54-8.45,14.83-2.28,2.28-6.42,4.36-14.84,8.47-6.27,3.06-15.75,7.69-17.48,19.77-.58,4.08-1.03,7.45-1.4,10.28-.87,6.6-1.31,9.91-2.1,12.11-.73,2.04-2.21,4.35-5.79,9.86-1.45,2.24-3.17,4.9-5.24,8.17-5.61,8.88-5.7,18.73-.27,27.73,1.52,2.52,3.12,4.88,4.67,7.16,2.71,3.99,5.27,7.76,6.79,11.51,1.52,3.78,2.31,8.25,3.15,12.99.48,2.75.99,5.6,1.65,8.44.11.5.26,1.01.41,1.51h-11.47c-3.64,0-7.05,1.78-9.13,4.77-2.08,2.99-2.56,6.8-1.3,10.22l44.48,120.06c1.62,4.36,5.78,7.26,10.43,7.26h458.18c4.65,0,8.81-2.89,10.43-7.26l44.48-120.06c1.26-3.41.78-7.23-1.3-10.22Zm-116.09-162.13c2.13-1.5,4.14-2.91,6.17-4.17,1.98-1.24,8.34-1.24,10.33.01,2.01,1.25,4.02,2.67,6.15,4.16,4.72,3.31,9.6,6.74,15.53,9.26,5.89,2.49,11.74,3.6,17.4,4.68,2.55.49,4.95.95,7.21,1.5,2.17.54,2.7,1.27,3.1,3.09.82,3.65,1.46,6.66,2,9.2,3.29,15.45,3.95,16.85,14.07,30.06,1.7,2.21,3.71,4.84,6.14,8.07-.02,1.11-.97,3.88-1.61,5.74-7.61,22.17-7.61,25.27,0,47.42.64,1.87,1.59,4.65,1.61,5.75-2.39,3.18-4.4,5.79-6.08,7.99-8.82,11.5-10.48,14.07-12.91,24.61h-90.87c.07-.35.15-.69.22-1.02,1.37-6.41,1.96-9.08,2.88-11.04.99-2.11,3.02-4.76,7.07-10.04,1.74-2.27,3.8-4.96,6.27-8.24,7.33-9.72,3.9-19.72,1.64-26.34-3.04-8.85-4.5-13.25-4.5-16.48s1.46-7.62,4.51-16.49c2.27-6.61,5.69-16.61-1.63-26.32-2.48-3.3-4.54-5.99-6.28-8.26-4.05-5.28-6.08-7.93-7.07-10.04-.92-1.95-1.51-4.63-2.88-11.04-.05-.22-.09-.44-.14-.66,2.05-.59,4.13-1.29,6.18-2.15,5.91-2.51,10.79-5.93,15.51-9.25Zm-151.37,4.35c2.27-.56,4.66-1.02,7.19-1.51,5.67-1.09,11.54-2.22,17.47-4.72,5.91-2.51,10.78-5.93,15.5-9.24,2.13-1.5,4.15-2.91,6.18-4.18,1.98-1.24,8.33-1.24,10.33.01,2.01,1.25,4.02,2.67,6.16,4.17,4.71,3.31,9.59,6.73,15.52,9.25,5.91,2.49,11.77,3.62,17.44,4.71,2.53.49,4.92.95,7.23,1.52,2,.49,2.59,1.08,3.04,3.08.83,3.68,1.48,6.72,2.03,9.27,3.29,15.37,3.95,16.77,14.05,29.96,1.69,2.21,3.71,4.84,6.13,8.06-.02,1.12-1.01,4.01-1.61,5.77-7.61,22.15-7.61,25.25,0,47.39.6,1.77,1.59,4.66,1.61,5.78-2.42,3.22-4.43,5.85-6.13,8.06-10.11,13.19-10.76,14.59-14.05,29.96-.36,1.67-.76,3.55-1.23,5.67h-59c.3-1.02.55-2.08.71-3.24.58-4.09,1.02-7.45,1.39-10.28.87-6.6,1.3-9.91,2.09-12.1.73-2.04,2.22-4.36,5.8-9.88,1.45-2.24,3.18-4.9,5.23-8.14,5.65-8.89,5.73-18.75.27-27.69-1.55-2.58-3.19-4.99-4.77-7.32-2.68-3.95-5.21-7.67-6.72-11.38-1.54-3.81-2.32-8.31-3.16-13.09-.47-2.71-.96-5.5-1.62-8.38-2.44-10.59-13.43-21.56-24.01-23.97-2.89-.67-5.73-1.18-8.48-1.66-4.73-.83-9.19-1.62-12.95-3.14-2.04-.83-4.08-1.96-6.16-3.25.41-1.9.88-4.03,1.43-6.45.43-1.96,1.03-2.55,3.06-3.05Zm-71.98,36.72c16.48-2.18,17.94-2.71,31.16-11.27,2.18-1.41,4.77-3.09,7.97-5.11,1.68-1.06,2.61-1.07,4.31-.04,1.98,1.2,3.97,2.55,6.08,3.98,4.81,3.27,9.79,6.65,15.8,9.08,5.93,2.39,11.77,3.42,17.42,4.42,2.57.45,5.01.88,7.32,1.42.03,0,.06.01.08.02,2.26.51,6.75,5,7.27,7.26.52,2.29.94,4.68,1.38,7.22.99,5.7,2.02,11.6,4.45,17.61,2.4,5.91,5.72,10.81,8.94,15.54,1.48,2.17,2.87,4.22,4.14,6.33,1.04,1.71,1.04,2.59-.03,4.27-2.01,3.17-3.69,5.77-5.11,7.95-8.59,13.25-9.12,14.7-11.28,31.19-.36,2.77-.79,6.06-1.36,10.03-.79.78-3.55,2.12-5.21,2.94-2.72,1.32-4.98,2.43-6.98,3.45h-136.81c2.16-4.25,3.66-6.77,5.26-8.36,2.28-2.28,6.42-4.36,14.78-8.44,5.9-2.85,15.78-7.62,17.52-19.76.58-4.08,1.03-7.45,1.4-10.28.87-6.6,1.31-9.92,2.1-12.11.73-2.03,2.21-4.35,5.77-9.85,1.46-2.25,3.19-4.92,5.24-8.18,5.62-8.85,5.73-18.69.27-27.78-1.5-2.46-3.07-4.78-4.6-7.02-.88-1.29-1.73-2.55-2.55-3.8,1.94-.26,3.69-.5,5.26-.7Zm-184.07,109.8c-.54-2.32-.97-4.75-1.42-7.32-1-5.66-2.03-11.51-4.43-17.47-2.42-5.96-5.77-10.9-9.01-15.67-1.45-2.14-2.82-4.15-4.04-6.16-1.05-1.74-1.04-2.64.04-4.35,2.01-3.17,3.69-5.77,5.1-7.95,8.57-13.22,9.09-14.67,11.28-31.15.37-2.77.8-6.05,1.37-10.04.79-.78,3.55-2.12,5.23-2.94,21.08-10.31,23.27-12.5,33.5-33.51.87-1.78,2.17-4.41,2.94-5.21,3.99-.57,7.28-1,10.04-1.37,16.5-2.18,17.96-2.71,31.16-11.27,2.19-1.42,4.8-3.11,7.97-5.12,1.71-1.08,2.62-1.08,4.35-.04,1.98,1.2,3.97,2.55,6.07,3.98,4.82,3.27,9.8,6.65,15.8,9.08,5.97,2.42,11.87,3.45,17.58,4.44,2.54.44,4.94.86,7.21,1.38,2.28.53,6.8,5.04,7.32,7.31.52,2.28.94,4.68,1.38,7.21,1,5.71,2.02,11.61,4.44,17.58,2.43,6,5.81,10.97,9.08,15.79,1.43,2.11,2.78,4.09,3.95,6.02,1.06,1.77,1.06,2.67-.02,4.38-2.02,3.19-3.7,5.8-5.12,7.99-8.55,13.2-9.07,14.65-11.25,31.13-.37,2.76-.8,6.05-1.37,10.02-.81.79-3.63,2.16-5.23,2.93-21.03,10.28-23.23,12.48-33.5,33.51-.49.99-1.1,2.24-1.69,3.3H49.49c-2.61-1.66-5.27-4.92-5.63-6.49Zm462.18,126.56H63.34l-9.88-26.67h81.13c6.14,0,11.12-4.98,11.12-11.12s-4.98-11.12-11.12-11.12H45.22l-18.12-48.92h19.76s.05,0,.07,0c.03,0,.06,0,.09,0h269.9s.05,0,.07,0c.01,0,.03,0,.04,0h97.71s.03,0,.05,0c0,0,.02,0,.03,0h114.5s.03,0,.05,0c.02,0,.04,0,.06,0h12.86l-18.12,48.92H234.49c-6.14,0-11.12,4.98-11.12,11.12s4.98,11.12,11.12,11.12h281.43l-9.88,26.67Z"/><path class="cls-1" d="m130.09,225.5h.06c6.14,0,11.09-4.98,11.09-11.12s-5.01-11.12-11.15-11.12-11.12,4.98-11.12,11.12,4.98,11.12,11.12,11.12Z"/><path class="cls-1" d="m130.15,253.3c-6.14,0-11.12,4.98-11.12,11.12s4.98,11.12,11.12,11.12h.06c6.14,0,11.09-4.98,11.09-11.12s-5.01-11.12-11.15-11.12Z"/><path class="cls-1" d="m277.86,256.98h.06c6.14,0,11.09-4.98,11.09-11.12s-5.01-11.12-11.15-11.12-11.12,4.98-11.12,11.12,4.98,11.12,11.12,11.12Z"/><path class="cls-1" d="m261,304.41h.03c6.14,0,11.11-4.98,11.11-11.12s-4.99-11.12-11.14-11.12-11.12,4.98-11.12,11.12,4.98,11.12,11.12,11.12Z"/><path class="cls-1" d="m388.54,243.62h.06c6.14,0,11.09-4.98,11.09-11.12s-5.01-11.12-11.15-11.12-11.12,4.98-11.12,11.12,4.98,11.12,11.12,11.12Z"/><path class="cls-1" d="m83.34,282.48c-6.14,0-11.12,4.98-11.12,11.12s4.98,11.12,11.12,11.12h.06c6.14,0,11.09-4.98,11.09-11.12s-5.01-11.12-11.15-11.12Z"/><path class="cls-1" d="m486.16,237.16h.06c6.14,0,11.09-4.98,11.09-11.12s-5.01-11.12-11.15-11.12-11.12,4.98-11.12,11.12,4.98,11.12,11.12,11.12Z"/><path class="cls-1" d="m478.45,296.91c0,6.14,4.98,11.12,11.12,11.12h.03c6.14,0,11.1-4.98,11.1-11.12s-4.99-11.12-11.14-11.12-11.12,4.98-11.12,11.12Z"/><path class="cls-1" d="m184.56,401.48c-6.14,0-11.12,4.98-11.12,11.12s4.98,11.12,11.12,11.12h.03c6.14,0,11.11-4.98,11.11-11.12s-4.99-11.12-11.14-11.12Z"/><path class="cls-1" d="m351.43,45.44l-.08.09c-7.95,9.52-9.48,20.16-9.34,27.51-.2,10.41,3.15,20.22,9.44,27.63l.04.05c2.2,2.68,5.39,4.08,8.61,4.08,2.48,0,4.97-.82,7.04-2.52,4.75-3.89,5.45-10.9,1.56-15.65l-.29-.34c-3.6-4.25-4.25-9.4-4.17-12.97,0-.18,0-.37,0-.55-.13-5.14,1.28-9.51,4.18-12.99.14-.16.25-.3.35-.43l.08-.1c7.91-9.52,9.44-20.16,9.3-27.5.14-7.34-1.39-17.97-9.3-27.49l-.07-.09c-3.81-4.77-10.76-5.58-15.57-1.8-4.83,3.8-5.66,10.79-1.86,15.62.09.12.22.28.39.48,2.89,3.48,4.29,7.86,4.16,13.01,0,.18,0,.37,0,.55.09,3.54-.56,8.67-4.16,13-.14.16-.25.3-.33.4Z"/><path class="cls-1" d="m278.09,32.01c.12,5.15-1.33,9.65-4.18,13.02l-.27.32s-.03.03-.06.08l-.09.11c-7.92,9.51-9.45,20.16-9.31,27.51-.2,10.42,3.14,20.22,9.41,27.63l.05.05c2.2,2.68,5.39,4.07,8.61,4.07,2.48,0,4.97-.82,7.04-2.52,4.75-3.89,5.45-10.9,1.56-15.65l-.27-.33c-2.84-3.36-4.27-7.85-4.15-12.99,0-.18,0-.37,0-.55-.13-5.16,1.27-9.53,4.16-13,.1-.12.18-.22.25-.3l.05-.06c6.27-7.41,9.62-17.21,9.44-27.64.18-10.42-3.17-20.22-9.44-27.63l-.07-.08c-3.89-4.73-10.88-5.42-15.63-1.54-4.75,3.89-5.46,10.9-1.57,15.65l.28.33c3.6,4.25,4.26,9.43,4.18,13.02,0,.17,0,.33,0,.5Z"/><path class="cls-1" d="m195.75,45.44l-.07.09c-7.95,9.52-9.49,20.17-9.35,27.52-.2,10.42,3.15,20.23,9.45,27.64l.04.05c2.2,2.68,5.39,4.07,8.6,4.07,2.48,0,4.98-.83,7.05-2.52,4.75-3.9,5.44-10.9,1.54-15.65l-.28-.34c-3.6-4.24-4.25-9.4-4.16-12.97,0-.18,0-.37,0-.55-.13-5.15,1.28-9.51,4.18-12.98.14-.16.25-.3.35-.43l.08-.1c7.91-9.52,9.44-20.16,9.3-27.5.14-7.34-1.39-17.97-9.29-27.49l-.08-.09c-3.81-4.77-10.76-5.58-15.56-1.8-4.83,3.8-5.66,10.79-1.87,15.62.09.12.23.28.39.48,2.89,3.48,4.29,7.86,4.17,13.01,0,.18,0,.37,0,.55.09,3.54-.56,8.67-4.16,13-.14.17-.25.3-.32.39Z"/></svg>